<svg width="250" height="106" viewBox="0 0 250 106" fill="none" xmlns="http://www.w3.org/2000/svg">
<path d="M93.9299 94.2987H76.8667L87.1184 59.4013H78.4492L64.207 106H47.1438L75.3531 11.6325H92.4162L82.7838 44.7403H91.453L105.145 0H122.208L93.9299 94.2987Z" fill="#E02041"/>
<path d="M123.584 11.6323H156.128L151.243 26.4999H136.45L131.084 44.6713H145.945L141.266 59.3323H126.749L121.038 78.5362H136.863L131.152 94.2297H99.2278L123.584 11.6323Z" fill="#E02041"/>
<path d="M151.312 106H134.111L161.563 11.6323H192.8C196.515 11.6323 198.992 12.6648 200.299 14.7986C201.607 16.9323 201.813 19.3414 200.987 22.0947L192.731 50.1778C192.318 51.4167 191.561 52.518 190.392 53.5505C189.222 54.583 187.571 55.0648 185.438 55.0648C186.745 55.2713 187.846 56.0973 188.74 57.5427C189.635 58.9882 189.635 61.1908 188.74 64.1505L179.865 94.2986H162.733L172.228 61.8791C172.434 61.1908 172.503 60.5713 172.297 59.9518C172.09 59.3323 171.471 59.057 170.439 59.057H164.728L151.312 106ZM174.154 46.8739C174.98 46.8739 175.737 46.6674 176.494 46.2544C177.182 45.8414 177.732 45.0154 178.145 43.7076L182.686 28.3583C183.374 26.0869 182.479 24.9167 180.071 24.9167H174.705L168.237 46.8739H174.154Z" fill="#E02041"/>
<path d="M242.957 11.6323C245.641 11.6323 247.567 12.596 248.806 14.5232C250.044 16.4505 250.319 18.6531 249.631 21.0622L230.642 85.557C229.61 88.9986 227.821 91.27 225.344 92.509C222.867 93.7479 220.184 94.2986 217.363 94.2986H196.997C195.552 94.2986 194.245 94.0232 193.006 93.5414C191.768 93.0596 190.805 92.3025 189.979 91.3388C189.153 90.3752 188.672 89.1362 188.397 87.7596C188.121 86.383 188.259 84.7999 188.809 83.0103L207.455 19.6856C208.074 17.2765 209.313 15.2804 211.17 13.8349C213.028 12.3895 215.367 11.6323 218.188 11.6323H242.957ZM225.069 24.9167C224.243 24.9167 223.624 25.1232 223.28 25.4674C222.867 25.8804 222.661 26.3622 222.454 26.9128L207.249 78.3986C206.836 79.7752 207.386 80.4635 208.831 80.4635H213.235C214.679 80.4635 215.574 79.7752 215.987 78.3986L231.123 26.9817C231.467 25.5362 230.917 24.8479 229.403 24.8479H225.069V24.9167Z" fill="#E02041"/>
<path d="M31.4431 20.6494H42.5204C43.9652 20.6494 44.8597 21.0624 45.2725 21.8195C45.6853 22.5767 45.7541 23.4715 45.4789 24.5728L42.8644 33.5208C42.7268 34.0715 42.3828 34.5533 41.8323 34.9663C41.2819 35.4481 40.4563 35.5858 39.4242 35.5858C39.9746 35.5858 40.3875 35.7234 40.6627 35.9299C41.0067 36.1364 41.2131 36.4118 41.3507 36.7559C41.4883 37.1001 41.5571 37.4442 41.5571 37.8572C41.5571 38.2702 41.4883 38.6832 41.4195 39.0273L38.9426 47.2182C38.6674 48.1819 38.117 48.939 37.4289 49.4897C36.7409 50.0403 35.6401 50.3156 34.3328 50.3156H22.7051L31.4431 20.6494ZM32.5439 45.4286C32.8191 45.4286 33.0943 45.3598 33.3008 45.291C33.5072 45.1533 33.7136 44.878 33.8512 44.465L35.6401 38.4767C35.7777 38.0637 35.7777 37.7884 35.6401 37.5131C35.5024 37.2377 35.2272 37.1689 34.8144 37.1689H32.8879L30.411 45.4975H32.5439V45.4286ZM35.9153 33.1767C36.3281 33.1767 36.6721 33.1079 36.8785 32.9702C37.0849 32.8325 37.2913 32.5572 37.4289 32.0754L39.0114 26.7066C39.149 26.2936 39.149 26.0182 39.0802 25.8118C38.9426 25.6053 38.6674 25.4676 38.2546 25.4676H36.2593L33.9888 33.1767H35.9153Z" fill="#41414D"/>
<path d="M48.7812 20.6494H60.4777L58.8953 26.0182H53.391L51.4645 32.5572H56.8312L55.2487 37.8572H49.8821L47.818 44.7403H53.5286L51.4645 50.3845H40.0432L48.7812 20.6494Z" fill="#41414D"/>
<path d="M18.9897 55.5469L17.4072 60.9157H13.2102L6.12347 85.2131H0L7.22432 60.8469H2.95853L4.541 55.478H18.9897V55.5469Z" fill="#41414D"/>
<path d="M27.315 85.2131H21.1915L24.8381 72.6858H21.7419L18.0266 85.2131H11.9031L20.6411 55.5469H26.7645L23.3244 67.4547H26.4205L29.9295 55.5469H36.053L27.315 85.2131Z" fill="#41414D"/>
<path d="M37.9794 55.5469H49.676L48.0935 60.9157H42.5893L40.6628 67.4547H46.0294L44.4469 72.7547H39.0803L37.0162 79.6378H42.7269L40.6628 85.2819H29.2415L37.9794 55.5469Z" fill="#41414D"/>
</svg>
